<?xml version="1.0" encoding="UTF-8" standalone="no"?>
<!DOCTYPE svg PUBLIC "-//W3C//DTD SVG 1.1//EN" "http://www.w3.org/Graphics/SVG/1.1/DTD/svg11.dtd">
<svg width="100%" height="100%" viewBox="0 0 93 93" version="1.1" xmlns="http://www.w3.org/2000/svg" xmlns:xlink="http://www.w3.org/1999/xlink" xml:space="preserve" xmlns:serif="http://www.serif.com/" style="fill-rule:evenodd;clip-rule:evenodd;stroke-linejoin:round;stroke-miterlimit:2;">
    <g id="Artboard1" transform="matrix(0.903635,0,0,0.922309,-0.370632,-0.631486)">
        <rect x="0.41" y="0.685" width="102.49" height="100.042" style="fill:none;"/>
        <g transform="matrix(0.628099,0,0,0.615382,16.0863,47.4891)">
            <path d="M79.063,28.195L60.064,18.45L44.091,17.683L31.614,14.134L14.73,21.368L13.275,24.46L7.037,29.892L4.994,32.367L5.478,33.388L7.872,35.809L11.287,36.723L12.846,36.562L16.235,35.056L13.411,37.012L19.071,37.679L30.526,36.831L33.373,32.432L33.168,37.042L37.475,38.91L39.413,38.014L38.283,40.22L40.551,54.94L48.776,78.16L39.71,78.493L38.315,85.335L55.295,85.276L58.488,75.847L58.133,58.998L53.98,32.483L58.95,56.815L64.694,45.963L79.237,53.764L65.27,47.677L59.402,59.203L66.408,74.271L77.606,80.676L59.833,79.125L57.423,85.332L89.569,85.864L95.007,58.553L79.063,28.195ZM17.174,25.59L15.589,25.24L15.186,23.761L16.368,23.653L18.008,24.567L17.174,25.59ZM32.314,20.588L33.147,19.593L34.116,21.906L33.215,24.488L32.421,25.052L32.314,22.497L30.566,19.754L30.834,18.194L32.072,17.683L35.11,18.463L32.367,18.409L31.695,19.324L32.314,20.588Z" style="fill-rule:nonzero;"/>
        </g>
        <g transform="matrix(0.776006,0.258808,-0.264156,0.760295,24.6036,-5.88445)">
            <path d="M28.326,24.005L46.518,56.417L38.759,30.833L47.253,40.197L49.903,60.858L50.426,43.277L54.682,52.35C49.918,65.731 54.806,60.977 54.729,61.47C54.7,61.653 54.657,61.878 54.586,62.364C54.513,62.859 54.547,62.585 54.336,63.56L53.746,65.851L49.965,66.914C49.965,66.914 33.83,45.77 33.83,45.77C33.83,45.77 6.895,13.624 6.895,13.624L28.326,24.005Z" style="fill-rule:nonzero;"/>
        </g>
        <g transform="matrix(0.391294,0.92365,-0.942737,0.383371,91.1422,-10.3645)">
            <path d="M28.326,24.005L46.518,56.417L38.759,30.833L47.253,40.197L49.903,60.858L52.256,43.632L56.126,52C48.726,66.524 55.212,64.22 53.585,64.939C53.246,65.089 53.892,64.78 52.16,65.585L50.664,66.301L50.761,68.28L33.83,45.77L6.895,13.624L28.326,24.005Z" style="fill-rule:nonzero;"/>
        </g>
    </g>
</svg>
